<svg xmlns="http://www.w3.org/2000/svg" width="24" height="20" viewBox="0 0 24 20">
    <path fill="#999" d="M1.912 19.84c.434 0 .715-.152.997-.387.656-.574 2.191-1.289 4.218-1.289 1.828 0 3.059.68 3.61 1.066.199.106.75.434.867.457V2.802C10.877 1.465 8.756.398 6.564.398 3.777.398 1.433 1.992.882 3.105v15.633c0 .785.457 1.102 1.031 1.102zm20.754 0c.575 0 1.032-.317 1.032-1.102V3.105C23.147 1.992 20.815.398 18.026.398c-2.192 0-4.313 1.067-5.04 2.403v16.898c.118-.012.669-.351.88-.469.539-.386 1.77-1.066 3.609-1.066 2.016 0 3.539.715 4.207 1.29.27.222.562.386.984.386z"/>
</svg>
