<svg xmlns="http://www.w3.org/2000/svg" width="29" height="19" viewBox="0 0 29 19">
    <path fill="#666" d="M27.557 3.22l.703-.722c.342-.352.351-.82.01-1.162l-.225-.225c-.303-.302-.791-.263-1.113.059l-.713.693 1.338 1.358zM17 12.704l1.904-.84 7.969-7.968-1.348-1.329-7.959 7.97-.888 1.845c-.078.185.127.41.322.322zm4.97 6.162c1.739 0 2.706-.927 2.706-2.666V8.426l-1.612 1.611v6.152c0 .752-.43 1.182-1.181 1.182H3.503c-.751 0-1.171-.43-1.171-1.182V8.445c0-.752.42-1.172 1.172-1.172h14.99l1.504-1.503H3.426C1.678 5.77.71 6.697.71 8.445V16.2c0 1.738.967 2.666 2.715 2.666H21.97zM5.888 13.543c.674 0 1.23-.557 1.23-1.22 0-.675-.556-1.221-1.23-1.221-.674 0-1.221.546-1.221 1.22 0 .664.547 1.221 1.22 1.221zm3.75 0c.683 0 1.23-.557 1.23-1.22 0-.675-.547-1.221-1.23-1.221-.684 0-1.221.546-1.221 1.22 0 .664.547 1.221 1.22 1.221zm3.75 0c.674 0 1.22-.557 1.22-1.22 0-.675-.546-1.221-1.22-1.221-.674 0-1.221.546-1.221 1.22 0 .664.557 1.221 1.22 1.221z"/>
</svg>
