<svg xmlns="http://www.w3.org/2000/svg" width="23" height="18" viewBox="0 0 23 18">
    <path fill="#666" d="M19.23 17.895c1.954 0 2.95-.987 2.95-2.92V3.705c0-1.924-.996-2.91-2.95-2.91H3.303c-1.953 0-2.95.976-2.95 2.91v11.27c0 1.933.997 2.92 2.95 2.92H19.23zM1.965 13.89V3.812c0-.937.498-1.406 1.396-1.406h15.81c.89 0 1.397.469 1.397 1.406v10.04L15.734 9.31c-.41-.362-.888-.557-1.386-.557-.508 0-.967.166-1.387.547l-4.17 3.73-1.709-1.543c-.39-.351-.82-.527-1.25-.527-.42 0-.81.166-1.191.518L1.965 13.89zm5.37-4.444c1.202 0 2.188-.976 2.188-2.187 0-1.201-.986-2.197-2.187-2.197-1.211 0-2.188.996-2.188 2.197 0 1.21.977 2.187 2.188 2.187z"/>
</svg>
