<svg xmlns="http://www.w3.org/2000/svg" width="23" height="19" viewBox="0 0 23 19">
    <path fill="#666" d="M17.97 18.08c.224 0 .459-.088.634-.244l3.545-2.93c.43-.351.42-.918 0-1.27l-3.545-2.948c-.175-.147-.41-.235-.634-.235-.528 0-.86.332-.86.85V13.1h-1.63c-.977 0-1.592-.313-2.344-1.202L10.948 9.33l2.188-2.568c.761-.889 1.347-1.201 2.324-1.201h1.65v1.855c0 .518.332.84.86.84.224 0 .459-.088.634-.235l3.545-2.93c.43-.35.42-.917 0-1.279L18.604.873c-.175-.146-.41-.234-.634-.234-.528 0-.86.322-.86.84V3.47h-1.67c-1.65 0-2.646.478-3.808 1.855L9.582 7.73 7.5 5.287C6.358 3.96 5.372 3.48 3.761 3.48H1.65c-.664 0-1.123.43-1.123 1.045 0 .606.46 1.045 1.123 1.045h2.11c.927 0 1.523.313 2.275 1.201l2.188 2.56-2.188 2.567c-.762.88-1.338 1.202-2.256 1.202H1.651c-.664 0-1.123.43-1.123 1.045s.46 1.044 1.123 1.044h2.13c1.61 0 2.577-.478 3.72-1.816l2.08-2.441 2.07 2.431c1.143 1.348 2.159 1.826 3.78 1.826h1.68v2.041c0 .518.331.85.859.85z"/>
</svg>
