<svg xmlns="http://www.w3.org/2000/svg" width="19" height="22" viewBox="0 0 19 22">
    <path fill="#FFF" d="M9.484 15.139c.264 0 .528-.098.791-.362l3.262-3.134c.176-.176.283-.372.283-.635 0-.508-.42-.86-.898-.86-.254 0-.498.098-.674.293l-1.27 1.348-.605.752.127-1.445v-9.98c0-.538-.45-1.007-1.016-1.007-.566 0-1.025.47-1.025 1.006v9.98l.127 1.446-.606-.752-1.27-1.348c-.175-.195-.419-.293-.673-.293-.488 0-.898.352-.898.86 0 .263.107.459.283.635l3.262 3.134c.263.264.527.362.8.362zm5.616 6.23c2.177 0 3.33-1.152 3.33-3.31V8.576c0-2.158-1.153-3.31-3.33-3.31H12.53v2.236h2.364c.84 0 1.308.43 1.308 1.318v9.004c0 .88-.469 1.309-1.308 1.309H4.025c-.85 0-1.298-.43-1.298-1.309V8.82c0-.888.449-1.318 1.298-1.318h2.403V5.266H3.82c-2.168 0-3.33 1.152-3.33 3.31v9.483c0 2.158 1.162 3.31 3.33 3.31H15.1z"/>
</svg>
