<svg xmlns="http://www.w3.org/2000/svg" width="20" height="16" viewBox="0 0 20 16">
    <path fill="#FFF" d="M20 1.896c-.737.32-1.526.537-2.356.637.847-.5 1.5-1.291 1.805-2.233-.793.462-1.67.8-2.606.98C16.093.491 15.024 0 13.846 0 11.58 0 9.744 1.808 9.744 4.037c0 .317.033.625.106.921-3.412-.166-6.438-1.775-8.46-4.22-.352.595-.555 1.291-.555 2.029 0 1.4.729 2.637 1.83 3.362-.677-.016-1.313-.2-1.864-.504v.05c0 1.958 1.416 3.587 3.293 3.958-.343.092-.708.142-1.08.142-.263 0-.522-.025-.772-.075.521 1.604 2.039 2.77 3.836 2.804-1.403 1.084-3.175 1.73-5.099 1.73-.33 0-.657-.021-.979-.059C1.81 15.333 3.967 16 6.281 16c7.557 0 11.685-6.154 11.685-11.492 0-.175-.005-.35-.013-.52.801-.571 1.496-1.28 2.047-2.092z"/>
</svg>
